<?xml version="1.0" encoding="utf-8"?>
<!-- Generator: Adobe Illustrator 21.1.0, SVG Export Plug-In . SVG Version: 6.00 Build 0)  -->
<!DOCTYPE svg PUBLIC "-//W3C//DTD SVG 1.1//EN" "http://www.w3.org/Graphics/SVG/1.1/DTD/svg11.dtd">
<svg version="1.1" id="Layer_1" xmlns:sketch="http://www.bohemiancoding.com/sketch/ns"
	 xmlns="http://www.w3.org/2000/svg" xmlns:xlink="http://www.w3.org/1999/xlink" x="0px" y="0px" viewBox="0 0 16 16"
	 style="enable-background:new 0 0 16 16;" xml:space="preserve">
<style type="text/css">
	.st0{fill:#FFFFFF;}
</style>
<title></title>
<g id="Icons_with_numbers">
	<g id="Group" transform="translate(-720.000000, -48.000000)">
		<path id="Shape" class="st0" d="M733,54v3c0,2-2,4-4,4v2h3v1h-7v-1h3v-2c-2,0-4-2-4-4v-3h1v3c0,1.5,1.5,3,3,3h1c1.5,0,3-1.5,3-3
			v-3H733z M728,48h1c1.1,0,2,0.9,2,2v7c0,1.1-0.9,2-2,2h-1c-1.1,0-2-0.9-2-2v-7C726,48.9,726.9,48,728,48z"/>
	</g>
</g>
</svg>
