<?xml version="1.0" encoding="utf-8"?>
<!-- Generator: Adobe Illustrator 21.1.0, SVG Export Plug-In . SVG Version: 6.00 Build 0)  -->
<!DOCTYPE svg PUBLIC "-//W3C//DTD SVG 1.1//EN" "http://www.w3.org/Graphics/SVG/1.1/DTD/svg11.dtd">
<svg version="1.1" id="Layer_1" xmlns="http://www.w3.org/2000/svg" xmlns:xlink="http://www.w3.org/1999/xlink" x="0px" y="0px"
	 viewBox="0 0 50 50" style="enable-background:new 0 0 50 50;" xml:space="preserve">
<style type="text/css">
	.st0{fill:#ED1C24;}
	.st1{fill:#FFFFFF;}
</style>
<g>
	<g>
		<circle class="st0" cx="25.1" cy="25.1" r="23.4"/>
	</g>
	<g>
		<path class="st1" d="M32.2,21.6H18c-1.6,0-2.8,1.3-2.8,2.8v8c0,1.6,1.3,2.8,2.8,2.8h14.2c1.6,0,2.8-1.3,2.8-2.8v-8
			C35,22.9,33.8,21.6,32.2,21.6z"/>
		<path class="st1" d="M30.7,20.3H19.5c-1.4,0-2.5-1.1-2.5-2.5v0c0-1.4,1.1-2.5,2.5-2.5h11.2c1.4,0,2.5,1.1,2.5,2.5v0
			C33.2,19.1,32.1,20.3,30.7,20.3z"/>
		<g>
			<circle class="st0" cx="20.5" cy="17.7" r="1.2"/>
			<circle class="st0" cx="29.7" cy="17.7" r="1.2"/>
		</g>
		<path class="st1" d="M24.2,14.1c0,0,0.2-0.6,0.9-0.6s0.9,0.6,0.9,0.6v4.2h-1.8V14.1z"/>
		<polygon class="st0" points="22.4,31.2 27.8,28.4 22.4,25.6 		"/>
		<circle class="st1" cx="25.1" cy="11.6" r="1.2"/>
	</g>
</g>
</svg>
