<?xml version="1.0" encoding="utf-8"?>
<!-- Generator: Adobe Illustrator 21.1.0, SVG Export Plug-In . SVG Version: 6.00 Build 0)  -->
<!DOCTYPE svg PUBLIC "-//W3C//DTD SVG 1.1//EN" "http://www.w3.org/Graphics/SVG/1.1/DTD/svg11.dtd">
<svg version="1.1" id="Layer_1" xmlns="http://www.w3.org/2000/svg" xmlns:xlink="http://www.w3.org/1999/xlink" x="0px" y="0px"
	 viewBox="0 0 810.1 199.2" style="enable-background:new 0 0 810.1 199.2;" xml:space="preserve">
<style type="text/css">
	.st0{fill:#ED1C24;}
	.st1{fill:#FFFFFF;}
</style>
<path class="st0" d="M106.9,71.3H20.1C9.1,71.3,0,80.4,0,91.4v46.9c0,11.1,9.1,20.1,20.1,20.1h86.8c11.1,0,20.1-9.1,20.1-20.1V91.4
	C127,80.4,118,71.3,106.9,71.3z"/>
<path class="st1" d="M84.6,199.2H42.5c-6.4,0-11.6-5.2-11.6-11.6v-9.3c0-6.4,5.2-11.6,11.6-11.6h42.1c6.4,0,11.6,5.2,11.6,11.6v9.3
	C96.1,194,90.9,199.2,84.6,199.2z"/>
<path class="st1" d="M104.4,30.5H69.1v-6.7c0-0.4-0.1-0.7-0.3-1c-0.6-1-2.2-3-5.3-3c-3.1,0-4.7,2-5.3,3c-0.2,0.3-0.3,0.7-0.3,1v6.7
	H22.6c-6.2,0-11.2,5-11.2,11.2v10c0,6.2,5,11.2,11.2,11.2h81.8c6.2,0,11.2-5,11.2-11.2v-10C115.6,35.5,110.6,30.5,104.4,30.5z
	 M34.4,53.9c-4.1,0-7.5-3.3-7.5-7.5c0-4.1,3.3-7.5,7.5-7.5c4.1,0,7.5,3.3,7.5,7.5C41.8,50.5,38.5,53.9,34.4,53.9z M92.7,53.9
	c-4.1,0-7.5-3.3-7.5-7.5c0-4.1,3.3-7.5,7.5-7.5c4.1,0,7.5,3.3,7.5,7.5C100.1,50.5,96.8,53.9,92.7,53.9z"/>
<path class="st1" d="M49.2,131.2l28.1-14.5c1.4-0.7,1.4-2.8,0-3.5L49.3,98.5c-1.3-0.7-2.9,0.3-2.9,1.8v29.2
	C46.4,130.9,47.9,131.9,49.2,131.2z"/>
<circle class="st0" cx="63.5" cy="7.5" r="7.5"/>
<g>
	<path class="st0" d="M244.1,66.7c1.1,0,2,0.9,2,2v95.8c0,10.2-2.7,18.2-8.1,23.9c-5.4,5.7-13.3,8.5-23.5,8.5
		c-3.7,0-7.3-0.4-10.7-1.1c-0.9-0.2-1.5-1-1.5-1.9v-15.7c0-1.2,1.1-2.1,2.3-2c2,0.3,3.9,0.4,5.5,0.4c7.5,0,11.2-4,11.2-11.9v-96
		c0-1.1,0.9-2,2-2H244.1z M219.3,42.7c0-3.7,1.2-6.8,3.7-9.2c2.5-2.4,5.9-3.6,10.2-3.6c4.3,0,7.7,1.2,10.2,3.6
		c2.5,2.4,3.7,5.5,3.7,9.2c0,3.8-1.3,6.9-3.8,9.3c-2.5,2.4-5.9,3.6-10.1,3.6c-4.2,0-7.5-1.2-10.1-3.6
		C220.5,49.6,219.3,46.5,219.3,42.7z"/>
	<path class="st0" d="M321.3,154.5c-0.1-1.6-2.1-2.5-3.3-1.3c-5.8,5.3-13.3,8-22.4,8c-9.9,0-17.5-2.9-22.8-8.6
		c-5.2-5.7-7.9-14.1-8-25.1V68.7c0-1.1,0.9-2,2-2h20.8c1.1,0,2,0.9,2,2v58c0,9.7,4.4,14.5,13.2,14.5c8.2,0,13.9-2.8,17.1-8.3
		c0.2-0.3,0.3-0.7,0.3-1V68.7c0-1.1,0.9-2,2-2H343c1.1,0,2,0.9,2,2v88.8c0,1.1-0.9,2-2,2h-19.5c-1,0-1.9-0.8-2-1.8L321.3,154.5z"/>
	<path class="st0" d="M395.6,124l-6.6,6.6c-0.4,0.4-0.6,0.9-0.6,1.4v25.5c0,1.1-0.9,2-2,2h-20.8c-1.1,0-2-0.9-2-2V29.8
		c0-1.1,0.9-2,2-2h20.8c1.1,0,2,0.9,2,2V95c0,1.9,2.4,2.7,3.5,1.2l1.3-1.6l23.2-27.2c0.4-0.4,0.9-0.7,1.5-0.7h24.5
		c1.7,0,2.6,2,1.5,3.3l-29.7,34.2c-0.6,0.7-0.6,1.7-0.1,2.4l33.5,49.7c0.9,1.3-0.1,3.1-1.6,3.1h-23.7c-0.7,0-1.3-0.3-1.7-0.9
		l-21.9-34.2C398,123.3,396.5,123.1,395.6,124z"/>
	<path class="st0" d="M500.2,161.2c-13.6,0-24.7-4.2-33.2-12.5c-8.5-8.3-12.8-19.5-12.8-33.3v-2.4c0-9.3,1.8-17.6,5.4-25
		c3.6-7.3,8.7-13,15.3-17c6.6-4,14.1-6,22.6-6c12.7,0,22.7,4,30,12c7.3,8,10.9,19.3,10.9,34v8.1c0,1.1-0.9,2-2,2h-54.7
		c-1.2,0-2.2,1.1-1.9,2.4c1.1,5,3.3,9,6.8,12.2c4,3.7,9.1,5.5,15.3,5.5c8.7,0,15.7-2.9,20.9-8.7c0.8-0.9,2.2-0.9,2.9,0l9.6,10.7
		c0.6,0.7,0.7,1.8,0.1,2.6c-3.6,4.6-8.3,8.3-14.1,10.9C514.9,159.7,507.9,161.2,500.2,161.2z M497.3,85c-4.9,0-8.9,1.7-12,5
		c-2.7,2.9-4.5,6.9-5.5,11.9c-0.2,1.2,0.7,2.4,2,2.4H512c1.1,0,2-0.9,2-2v0c-0.1-5.5-1.6-9.8-4.5-12.8C506.6,86.5,502.6,85,497.3,85
		z"/>
	<path class="st1" d="M554,157.5V36.6c0-1.1,0.9-2,2-2h41.7c15.1,0,26.6,2.9,34.5,8.7c7.8,5.8,11.7,14.3,11.7,25.5
		c0,6.1-1.6,11.5-4.7,16.2c-2.3,3.4-5.2,6.1-8.9,8.2c-1.4,0.8-1.3,2.9,0.2,3.5c4.3,1.8,7.9,4.5,10.6,8.2c3.7,4.9,5.5,10.8,5.5,17.8
		c0,12-3.8,21.1-11.5,27.3c-7.7,6.2-18.6,9.3-32.7,9.4H556C554.9,159.5,554,158.6,554,157.5z M579.7,85c0,1.1,0.9,2,2,2h17
		c13-0.2,19.5-5.4,19.5-15.5c0-5.7-1.6-9.7-4.9-12.2c-3.3-2.5-8.5-3.7-15.6-3.7h-16c-1.1,0-2,0.9-2,2V85z M579.7,107.1v29.7
		c0,1.1,0.9,2,2,2h20c6.1,0,10.8-1.4,14.2-4.3c3.4-2.9,5.1-6.9,5.1-12c0-11.4-5.9-17.2-17.7-17.4h-21.6
		C580.6,105.1,579.7,106,579.7,107.1z"/>
	<path class="st1" d="M660.5,112.2c0-9.2,1.8-17.4,5.3-24.6c3.5-7.2,8.6-12.8,15.3-16.7c6.7-3.9,14.4-5.9,23.2-5.9
		c12.5,0,22.7,3.8,30.6,11.5c7.9,7.7,12.3,18.1,13.2,31.2l0.2,6.3c0,14.2-4,25.6-11.9,34.2c-7.9,8.6-18.6,12.9-32,12.9
		c-13.4,0-24-4.3-32-12.9c-8-8.6-12-20.2-12-35V112.2z M685.3,114c0,8.8,1.7,15.6,5,20.2c3.3,4.7,8.1,7,14.2,7
		c6,0,10.7-2.3,14.1-6.9c3.4-4.6,5.1-12,5.1-22.1c0-8.6-1.7-15.3-5.1-20.1c-3.4-4.7-8.1-7.1-14.2-7.1c-6.1,0-10.7,2.4-14.1,7.1
		C687,96.8,685.3,104.1,685.3,114z"/>
	<path class="st1" d="M793.3,45.9v18.8c0,1.1,0.9,2,2,2h11.9c1.1,0,2,0.9,2,2v14.2c0,1.1-0.9,2-2,2h-11.9c-1.1,0-2,0.9-2,2v44.3
		c0,3.4,0.7,5.9,2,7.4s3.8,2.2,7.5,2.2c1.8,0,3.5-0.1,5.1-0.3c1.2-0.1,2.2,0.8,2.2,1.9v15c0,0.9-0.6,1.7-1.4,1.9
		c-4.4,1.2-8.9,1.8-13.6,1.8c-17.4,0-26.2-8.8-26.6-26.3v-48c0-1.1-0.9-2-2-2H757c-1.1,0-2-0.9-2-2V68.7c0-1.1,0.9-2,2-2h9.6
		c1.1,0,2-0.9,2-2V45.9c0-1.1,0.9-2,2-2h20.8C792.4,43.9,793.3,44.8,793.3,45.9z"/>
</g>
</svg>
