<?xml version="1.0" encoding="utf-8"?>
<!-- Generator: Adobe Illustrator 21.1.0, SVG Export Plug-In . SVG Version: 6.00 Build 0)  -->
<!DOCTYPE svg PUBLIC "-//W3C//DTD SVG 1.1//EN" "http://www.w3.org/Graphics/SVG/1.1/DTD/svg11.dtd">
<svg version="1.1" id="Layer_1" xmlns="http://www.w3.org/2000/svg" xmlns:xlink="http://www.w3.org/1999/xlink" x="0px" y="0px"
	 viewBox="0 0 738 1500" style="enable-background:new 0 0 738 1500;" xml:space="preserve">
<style type="text/css">
	.st0{fill:#58595B;}
	.st1{fill:#414042;}
	.st2{fill:#D1D3D4;}
	.st3{fill:#282829;}
	.st4{fill:url(#SVGID_1_);}
	.st5{fill:url(#SVGID_2_);}
	.st6{fill:url(#SVGID_3_);}
	.st7{fill:url(#SVGID_4_);}
	.st8{fill:url(#SVGID_5_);}
	.st9{fill:url(#SVGID_6_);}
	.st10{fill:url(#SVGID_7_);}
	.st11{fill:url(#SVGID_8_);}
	.st12{fill:url(#SVGID_9_);}
	.st13{fill:url(#SVGID_10_);}
	.st14{fill:url(#SVGID_11_);}
	.st15{fill:url(#SVGID_12_);}
	.st16{fill:#5B5B5B;stroke:#010101;stroke-width:0.25;stroke-miterlimit:10;}
	.st17{fill:url(#SVGID_13_);}
	.st18{fill:url(#SVGID_14_);}
	.st19{fill:#302F31;stroke:#010101;stroke-width:0.25;stroke-miterlimit:10;}
	.st20{fill:#0E100F;stroke:#010101;stroke-width:0.25;stroke-miterlimit:10;}
	.st21{fill:#101825;stroke:#010101;stroke-width:0.25;stroke-miterlimit:10;}
	.st22{fill:#A0B2DB;stroke:#010101;stroke-width:0.25;stroke-miterlimit:10;}
	.st23{fill:#212555;stroke:#010101;stroke-width:0.25;stroke-miterlimit:10;}
	.st24{fill:#4C5696;stroke:#010101;stroke-width:0.25;stroke-miterlimit:10;}
	.st25{fill:#7081C0;stroke:#010101;stroke-width:0.25;stroke-miterlimit:10;}
	.st26{fill:#ACABAB;stroke:#010101;stroke-width:0.25;stroke-miterlimit:10;}
	.st27{fill:url(#SVGID_15_);}
	.st28{fill:url(#SVGID_16_);}
	.st29{fill:#E42F28;}
	.st30{fill:#FFFFFF;}
	.st31{fill:#ED1C24;}
	.st32{font-family:'Roboto-Bold';}
	.st33{font-size:63.3074px;}
</style>
<rect x="27" y="216" class="st0" width="675" height="1215"/>
<g>
	
		<image style="overflow:visible;opacity:0.45;" width="2976" height="739" xlink:href="50ED910FDBB0822A.png"  transform="matrix(0.24 0 0 0.24 10.56 72.96)">
	</image>
	<g>
		<rect x="34.6" y="90.1" class="st3" width="666" height="129"/>
	</g>
</g>
<g>
	<linearGradient id="SVGID_1_" gradientUnits="userSpaceOnUse" x1="734.1197" y1="460.2307" x2="734.1197" y2="358.5491">
		<stop  offset="0" style="stop-color:#8E8C8F"/>
		<stop  offset="3.763440e-02" style="stop-color:#241F23"/>
		<stop  offset="7.526880e-02" style="stop-color:#C8C5C7"/>
		<stop  offset="0.9194" style="stop-color:#C8C5C7"/>
		<stop  offset="0.9624" style="stop-color:#241F23"/>
		<stop  offset="1" style="stop-color:#8E8C8F"/>
	</linearGradient>
	<path class="st4" d="M734.1,363.8v90.3h-3.3c0,2.7,0,4.8,0,6.1c3.7,0,6.7-3,6.7-6.7v-88.3c0-3.7-3-6.7-6.7-6.7c0,1.1,0,2.9,0,5.3
		H734.1z"/>
	<linearGradient id="SVGID_2_" gradientUnits="userSpaceOnUse" x1="732.4517" y1="460.2307" x2="732.4517" y2="358.5491">
		<stop  offset="0" style="stop-color:#8E8C8F"/>
		<stop  offset="3.763440e-02" style="stop-color:#241F23"/>
		<stop  offset="7.526880e-02" style="stop-color:#C8C5C7"/>
		<stop  offset="0.9194" style="stop-color:#C8C5C7"/>
		<stop  offset="0.9624" style="stop-color:#241F23"/>
		<stop  offset="1" style="stop-color:#8E8C8F"/>
	</linearGradient>
	<path class="st5" d="M734.1,363.8h-3.3c0,18.3,0,70.5,0,90.3h3.3V363.8z"/>
	<linearGradient id="SVGID_3_" gradientUnits="userSpaceOnUse" x1="732.4517" y1="454.0978" x2="732.4517" y2="363.8298">
		<stop  offset="0" style="stop-color:#8E8F90"/>
		<stop  offset="5.376340e-02" style="stop-color:#8E8F90"/>
		<stop  offset="0.9462" style="stop-color:#8E8F90"/>
		<stop  offset="1" style="stop-color:#8E8F90"/>
	</linearGradient>
	<path class="st6" d="M734.1,363.8h-3.3c0,18.3,0,70.5,0,90.3h3.3V363.8z"/>
	<linearGradient id="SVGID_4_" gradientUnits="userSpaceOnUse" x1="734.1197" y1="760.0386" x2="734.1197" y2="568.8355">
		<stop  offset="0" style="stop-color:#8E8C8F"/>
		<stop  offset="1.612900e-02" style="stop-color:#241F23"/>
		<stop  offset="4.838710e-02" style="stop-color:#C8C5C7"/>
		<stop  offset="0.9409" style="stop-color:#C8C5C7"/>
		<stop  offset="0.9731" style="stop-color:#241F23"/>
		<stop  offset="1" style="stop-color:#8E8C8F"/>
	</linearGradient>
	<path class="st7" d="M734.1,574.1v179.8h-3.3c0,3,0,5.1,0,6.1c3.7,0,6.7-3,6.7-6.7V575.5c0-3.7-3-6.7-6.7-6.7c0,0.8,0,2.6,0,5.3
		H734.1z"/>
	<linearGradient id="SVGID_5_" gradientUnits="userSpaceOnUse" x1="732.4517" y1="760.0387" x2="732.4517" y2="568.8355">
		<stop  offset="0" style="stop-color:#8E8C8F"/>
		<stop  offset="1.612900e-02" style="stop-color:#241F23"/>
		<stop  offset="4.838710e-02" style="stop-color:#C8C5C7"/>
		<stop  offset="0.9409" style="stop-color:#C8C5C7"/>
		<stop  offset="0.9731" style="stop-color:#241F23"/>
		<stop  offset="1" style="stop-color:#8E8C8F"/>
	</linearGradient>
	<path class="st8" d="M734.1,574.1h-3.3c0,28.1,0,149.5,0,179.8h3.3V574.1z"/>
	<linearGradient id="SVGID_6_" gradientUnits="userSpaceOnUse" x1="732.4517" y1="753.9058" x2="732.4517" y2="574.1162">
		<stop  offset="0" style="stop-color:#8E8F90"/>
		<stop  offset="5.376340e-02" style="stop-color:#8E8F90"/>
		<stop  offset="0.9462" style="stop-color:#8E8F90"/>
		<stop  offset="1" style="stop-color:#8E8F90"/>
	</linearGradient>
	<path class="st9" d="M734.1,574.1h-3.3c0,28.1,0,149.5,0,179.8h3.3V574.1z"/>
	<linearGradient id="SVGID_7_" gradientUnits="userSpaceOnUse" x1="4.4158" y1="749.7126" x2="730.7822" y2="749.7126">
		<stop  offset="0" style="stop-color:#8E8C8F"/>
		<stop  offset="1.612900e-02" style="stop-color:#241F23"/>
		<stop  offset="4.838710e-02" style="stop-color:#C8C5C7"/>
		<stop  offset="0.9409" style="stop-color:#C8C5C7"/>
		<stop  offset="0.9731" style="stop-color:#241F23"/>
		<stop  offset="1" style="stop-color:#8E8C8F"/>
	</linearGradient>
	<path class="st10" d="M730.8,454.1c0-19.8,0-72,0-90.3c0-2.4,0-4.2,0-5.3v-283c0-42-34.2-76.2-76.2-76.2H80.6
		c-42,0-76.2,34.2-76.2,76.2v1348.3c0,42,34.2,76.2,76.2,76.2h574.1c42,0,76.2-34.2,76.2-76.2V760c0-1,0-3.1,0-6.1
		c0-30.2,0-151.7,0-179.8c0-2.6,0-4.4,0-5.3V460.2C730.8,458.9,730.8,456.8,730.8,454.1z M725.6,1423.8c0,39.1-31.8,71-71,71H80.6
		c-39.1,0-71-31.8-71-71V75.6c0-39.1,31.8-71,71-71h574.1c39.1,0,71,31.8,71,71V1423.8z"/>
	<linearGradient id="SVGID_8_" gradientUnits="userSpaceOnUse" x1="369.662" y1="53.0806" x2="369.662" y2="658.9933">
		<stop  offset="0" style="stop-color:#030305"/>
		<stop  offset="1" style="stop-color:#212121"/>
	</linearGradient>
	<path class="st11" d="M241.3,35.5c-3,0-5.5,2.5-5.5,5.5c0,3,2.5,5.5,5.5,5.5H498c3,0,5.5-2.5,5.5-5.5c0-3-2.5-5.5-5.5-5.5H241.3z
		 M239.7,44H239v-6h0.7V44z M242.7,45.4H242v-8.7h0.7V45.4z M245.5,45.4h-0.7v-8.7h0.7V45.4z M248.3,45.4h-0.7v-8.7h0.7V45.4z
		 M251.1,45.4h-0.7v-8.7h0.7V45.4z M253.9,45.4h-0.7v-8.7h0.7V45.4z M256.7,45.4h-0.7v-8.7h0.7V45.4z M259.5,45.4h-0.7v-8.7h0.7
		V45.4z M262.2,45.4h-0.7v-8.7h0.7V45.4z M265,45.4h-0.7v-8.7h0.7V45.4z M267.8,45.4h-0.7v-8.7h0.7V45.4z M270.6,45.4h-0.7v-8.7h0.7
		V45.4z M273.4,45.4h-0.7v-8.7h0.7V45.4z M276.2,45.4h-0.7v-8.7h0.7V45.4z M279,45.4h-0.7v-8.7h0.7V45.4z M281.8,45.4h-0.7v-8.7h0.7
		V45.4z M284.6,45.4h-0.7v-8.7h0.7V45.4z M287.4,45.4h-0.7v-8.7h0.7V45.4z M290.1,45.4h-0.7v-8.7h0.7V45.4z M292.9,45.4h-0.7v-8.7
		h0.7V45.4z M295.7,45.4H295v-8.7h0.7V45.4z M298.5,45.4h-0.7v-8.7h0.7V45.4z M301.3,45.4h-0.7v-8.7h0.7V45.4z M304.1,45.4h-0.7
		v-8.7h0.7V45.4z M306.9,45.4h-0.7v-8.7h0.7V45.4z M309.7,45.4H309v-8.7h0.7V45.4z M312.5,45.4h-0.7v-8.7h0.7V45.4z M315.3,45.4
		h-0.7v-8.7h0.7V45.4z M318.1,45.4h-0.7v-8.7h0.7V45.4z M320.8,45.4h-0.7v-8.7h0.7V45.4z M323.6,45.4h-0.7v-8.7h0.7V45.4z
		 M326.4,45.4h-0.7v-8.7h0.7V45.4z M329.2,45.4h-0.7v-8.7h0.7V45.4z M332,45.4h-0.7v-8.7h0.7V45.4z M334.8,45.4h-0.7v-8.7h0.7V45.4z
		 M337.6,45.4h-0.7v-8.7h0.7V45.4z M340.4,45.4h-0.7v-8.7h0.7V45.4z M343.2,45.4h-0.7v-8.7h0.7V45.4z M346,45.4h-0.7v-8.7h0.7V45.4z
		 M348.7,45.4H348v-8.7h0.7V45.4z M351.5,45.4h-0.7v-8.7h0.7V45.4z M354.3,45.4h-0.7v-8.7h0.7V45.4z M357.1,45.4h-0.7v-8.7h0.7V45.4
		z M359.9,45.4h-0.7v-8.7h0.7V45.4z M362.7,45.4H362v-8.7h0.7V45.4z M365.5,45.4h-0.7v-8.7h0.7V45.4z M368.3,45.4h-0.7v-8.7h0.7
		V45.4z M371.1,45.4h-0.7v-8.7h0.7V45.4z M373.9,45.4h-0.7v-8.7h0.7V45.4z M376.7,45.4h-0.7v-8.7h0.7V45.4z M379.4,45.4h-0.7v-8.7
		h0.7V45.4z M382.2,45.4h-0.7v-8.7h0.7V45.4z M385,45.4h-0.7v-8.7h0.7V45.4z M387.8,45.4h-0.7v-8.7h0.7V45.4z M390.6,45.4h-0.7v-8.7
		h0.7V45.4z M393.4,45.4h-0.7v-8.7h0.7V45.4z M396.2,45.4h-0.7v-8.7h0.7V45.4z M399,45.4h-0.7v-8.7h0.7V45.4z M401.8,45.4h-0.7v-8.7
		h0.7V45.4z M404.6,45.4h-0.7v-8.7h0.7V45.4z M407.3,45.4h-0.7v-8.7h0.7V45.4z M410.1,45.4h-0.7v-8.7h0.7V45.4z M412.9,45.4h-0.7
		v-8.7h0.7V45.4z M415.7,45.4H415v-8.7h0.7V45.4z M418.5,45.4h-0.7v-8.7h0.7V45.4z M421.3,45.4h-0.7v-8.7h0.7V45.4z M424.1,45.4
		h-0.7v-8.7h0.7V45.4z M426.9,45.4h-0.7v-8.7h0.7V45.4z M429.7,45.4H429v-8.7h0.7V45.4z M432.5,45.4h-0.7v-8.7h0.7V45.4z
		 M435.3,45.4h-0.7v-8.7h0.7V45.4z M438,45.4h-0.7v-8.7h0.7V45.4z M440.8,45.4h-0.7v-8.7h0.7V45.4z M443.6,45.4h-0.7v-8.7h0.7V45.4z
		 M446.4,45.4h-0.7v-8.7h0.7V45.4z M449.2,45.4h-0.7v-8.7h0.7V45.4z M452,45.4h-0.7v-8.7h0.7V45.4z M454.8,45.4h-0.7v-8.7h0.7V45.4z
		 M457.6,45.4h-0.7v-8.7h0.7V45.4z M460.4,45.4h-0.7v-8.7h0.7V45.4z M463.2,45.4h-0.7v-8.7h0.7V45.4z M466,45.4h-0.7v-8.7h0.7V45.4z
		 M468.7,45.4H468v-8.7h0.7V45.4z M471.5,45.4h-0.7v-8.7h0.7V45.4z M474.3,45.4h-0.7v-8.7h0.7V45.4z M477.1,45.4h-0.7v-8.7h0.7V45.4
		z M479.9,45.4h-0.7v-8.7h0.7V45.4z M482.7,45.4H482v-8.7h0.7V45.4z M485.5,45.4h-0.7v-8.7h0.7V45.4z M488.3,45.4h-0.7v-8.7h0.7
		V45.4z M491.1,45.4h-0.7v-8.7h0.7V45.4z M493.9,45.4h-0.7v-8.7h0.7V45.4z M496.7,45.4h-0.7v-8.7h0.7V45.4z M499,38h0.7v6H499V38z"
		/>
	<linearGradient id="SVGID_9_" gradientUnits="userSpaceOnUse" x1="367.5974" y1="53.0806" x2="367.5974" y2="658.9933">
		<stop  offset="0" style="stop-color:#030305"/>
		<stop  offset="1" style="stop-color:#212121"/>
	</linearGradient>
	<path class="st12" d="M654.6,6.3H80.6c-38.2,0-69.2,31-69.2,69.2v1348.3c0,38.2,31,69.2,69.2,69.2h574.1c38.2,0,69.2-31,69.2-69.2
		V75.6C723.9,37.3,692.9,6.3,654.6,6.3z M97.8,21.2h541c23.4,0,43.9,7.3,55.6,18.3c-12.1-9.4-31.3-15.6-52.9-15.6H95.2
		c-21.6,0-40.8,6.1-52.9,15.6C53.9,28.5,74.4,21.2,97.8,21.2z M505.6,41c0,4.2-3.4,7.6-7.6,7.6H241.3c-4.2,0-7.6-3.4-7.6-7.6
		c0-4.2,3.4-7.6,7.6-7.6H498C502.2,33.4,505.6,36.8,505.6,41z M127,66c0,7.7-6.2,13.9-13.9,13.9c-7.7,0-13.9-6.2-13.9-13.9
		c0-7.7,6.2-13.9,13.9-13.9C120.8,52.1,127,58.3,127,66z M493.1,1469.3H236.4c-4.2,0-7.6-3.4-7.6-7.6c0-4.2,3.4-7.6,7.6-7.6h256.7
		c4.2,0,7.6,3.4,7.6,7.6C500.7,1465.9,497.3,1469.3,493.1,1469.3z M697.1,1374.7c0,21-17,38.1-38.1,38.1h-583
		c-21,0-38.1-17-38.1-38.1V136.2c0-21,17.1-38.1,38.1-38.1h583c21,0,38.1,17,38.1,38.1V1374.7z"/>
	<linearGradient id="SVGID_10_" gradientUnits="userSpaceOnUse" x1="364.7777" y1="53.0806" x2="364.7777" y2="658.9933">
		<stop  offset="0" style="stop-color:#030305"/>
		<stop  offset="1" style="stop-color:#212121"/>
	</linearGradient>
	<path class="st13" d="M493.1,1456.2H236.4c-3,0-5.5,2.5-5.5,5.5c0,3,2.5,5.5,5.5,5.5h256.7c3,0,5.5-2.5,5.5-5.5
		C498.7,1458.7,496.2,1456.2,493.1,1456.2z M234.8,1464.7h-0.7v-6h0.7V1464.7z M237.8,1466.1h-0.7v-8.7h0.7V1466.1z M240.6,1466.1
		h-0.7v-8.7h0.7V1466.1z M243.4,1466.1h-0.7v-8.7h0.7V1466.1z M246.2,1466.1h-0.7v-8.7h0.7V1466.1z M249,1466.1h-0.7v-8.7h0.7
		V1466.1z M251.8,1466.1h-0.7v-8.7h0.7V1466.1z M254.6,1466.1h-0.7v-8.7h0.7V1466.1z M257.4,1466.1h-0.7v-8.7h0.7V1466.1z
		 M260.1,1466.1h-0.7v-8.7h0.7V1466.1z M262.9,1466.1h-0.7v-8.7h0.7V1466.1z M265.7,1466.1H265v-8.7h0.7V1466.1z M268.5,1466.1h-0.7
		v-8.7h0.7V1466.1z M271.3,1466.1h-0.7v-8.7h0.7V1466.1z M274.1,1466.1h-0.7v-8.7h0.7V1466.1z M276.9,1466.1h-0.7v-8.7h0.7V1466.1z
		 M279.7,1466.1H279v-8.7h0.7V1466.1z M282.5,1466.1h-0.7v-8.7h0.7V1466.1z M285.3,1466.1h-0.7v-8.7h0.7V1466.1z M288.1,1466.1h-0.7
		v-8.7h0.7V1466.1z M290.8,1466.1h-0.7v-8.7h0.7V1466.1z M293.6,1466.1h-0.7v-8.7h0.7V1466.1z M296.4,1466.1h-0.7v-8.7h0.7V1466.1z
		 M299.2,1466.1h-0.7v-8.7h0.7V1466.1z M302,1466.1h-0.7v-8.7h0.7V1466.1z M304.8,1466.1h-0.7v-8.7h0.7V1466.1z M307.6,1466.1h-0.7
		v-8.7h0.7V1466.1z M310.4,1466.1h-0.7v-8.7h0.7V1466.1z M313.2,1466.1h-0.7v-8.7h0.7V1466.1z M316,1466.1h-0.7v-8.7h0.7V1466.1z
		 M318.7,1466.1H318v-8.7h0.7V1466.1z M321.5,1466.1h-0.7v-8.7h0.7V1466.1z M324.3,1466.1h-0.7v-8.7h0.7V1466.1z M327.1,1466.1h-0.7
		v-8.7h0.7V1466.1z M329.9,1466.1h-0.7v-8.7h0.7V1466.1z M332.7,1466.1H332v-8.7h0.7V1466.1z M335.5,1466.1h-0.7v-8.7h0.7V1466.1z
		 M338.3,1466.1h-0.7v-8.7h0.7V1466.1z M341.1,1466.1h-0.7v-8.7h0.7V1466.1z M343.9,1466.1h-0.7v-8.7h0.7V1466.1z M346.7,1466.1
		h-0.7v-8.7h0.7V1466.1z M349.4,1466.1h-0.7v-8.7h0.7V1466.1z M352.2,1466.1h-0.7v-8.7h0.7V1466.1z M355,1466.1h-0.7v-8.7h0.7
		V1466.1z M357.8,1466.1h-0.7v-8.7h0.7V1466.1z M360.6,1466.1h-0.7v-8.7h0.7V1466.1z M363.4,1466.1h-0.7v-8.7h0.7V1466.1z
		 M366.2,1466.1h-0.7v-8.7h0.7V1466.1z M369,1466.1h-0.7v-8.7h0.7V1466.1z M371.8,1466.1h-0.7v-8.7h0.7V1466.1z M374.6,1466.1h-0.7
		v-8.7h0.7V1466.1z M377.4,1466.1h-0.7v-8.7h0.7V1466.1z M380.1,1466.1h-0.7v-8.7h0.7V1466.1z M382.9,1466.1h-0.7v-8.7h0.7V1466.1z
		 M385.7,1466.1H385v-8.7h0.7V1466.1z M388.5,1466.1h-0.7v-8.7h0.7V1466.1z M391.3,1466.1h-0.7v-8.7h0.7V1466.1z M394.1,1466.1h-0.7
		v-8.7h0.7V1466.1z M396.9,1466.1h-0.7v-8.7h0.7V1466.1z M399.7,1466.1H399v-8.7h0.7V1466.1z M402.5,1466.1h-0.7v-8.7h0.7V1466.1z
		 M405.3,1466.1h-0.7v-8.7h0.7V1466.1z M408,1466.1h-0.7v-8.7h0.7V1466.1z M410.8,1466.1h-0.7v-8.7h0.7V1466.1z M413.6,1466.1h-0.7
		v-8.7h0.7V1466.1z M416.4,1466.1h-0.7v-8.7h0.7V1466.1z M419.2,1466.1h-0.7v-8.7h0.7V1466.1z M422,1466.1h-0.7v-8.7h0.7V1466.1z
		 M424.8,1466.1h-0.7v-8.7h0.7V1466.1z M427.6,1466.1h-0.7v-8.7h0.7V1466.1z M430.4,1466.1h-0.7v-8.7h0.7V1466.1z M433.2,1466.1
		h-0.7v-8.7h0.7V1466.1z M436,1466.1h-0.7v-8.7h0.7V1466.1z M438.7,1466.1H438v-8.7h0.7V1466.1z M441.5,1466.1h-0.7v-8.7h0.7V1466.1
		z M444.3,1466.1h-0.7v-8.7h0.7V1466.1z M447.1,1466.1h-0.7v-8.7h0.7V1466.1z M449.9,1466.1h-0.7v-8.7h0.7V1466.1z M452.7,1466.1
		H452v-8.7h0.7V1466.1z M455.5,1466.1h-0.7v-8.7h0.7V1466.1z M458.3,1466.1h-0.7v-8.7h0.7V1466.1z M461.1,1466.1h-0.7v-8.7h0.7
		V1466.1z M463.9,1466.1h-0.7v-8.7h0.7V1466.1z M466.7,1466.1h-0.7v-8.7h0.7V1466.1z M469.4,1466.1h-0.7v-8.7h0.7V1466.1z
		 M472.2,1466.1h-0.7v-8.7h0.7V1466.1z M475,1466.1h-0.7v-8.7h0.7V1466.1z M477.8,1466.1h-0.7v-8.7h0.7V1466.1z M480.6,1466.1h-0.7
		v-8.7h0.7V1466.1z M483.4,1466.1h-0.7v-8.7h0.7V1466.1z M486.2,1466.1h-0.7v-8.7h0.7V1466.1z M489,1466.1h-0.7v-8.7h0.7V1466.1z
		 M491.8,1466.1h-0.7v-8.7h0.7V1466.1z M494.8,1464.7h-0.7v-6h0.7V1464.7z"/>
	<linearGradient id="SVGID_11_" gradientUnits="userSpaceOnUse" x1="369.6635" y1="53.0806" x2="369.6635" y2="658.9933">
		<stop  offset="0" style="stop-color:#030305"/>
		<stop  offset="1" style="stop-color:#212121"/>
	</linearGradient>
	<path class="st14" d="M241.3,33.4c-4.2,0-7.6,3.4-7.6,7.6c0,4.2,3.4,7.6,7.6,7.6H498c4.2,0,7.6-3.4,7.6-7.6c0-4.2-3.4-7.6-7.6-7.6
		H241.3z M503.5,41c0,3-2.5,5.5-5.5,5.5H241.3c-3,0-5.5-2.5-5.5-5.5c0-3,2.5-5.5,5.5-5.5H498C501.1,35.5,503.5,38,503.5,41z"/>
	<linearGradient id="SVGID_12_" gradientUnits="userSpaceOnUse" x1="369.6635" y1="48.6213" x2="369.6635" y2="33.4301">
		<stop  offset="0" style="stop-color:#555354"/>
		<stop  offset="1" style="stop-color:#343132"/>
	</linearGradient>
	<path class="st15" d="M241.3,33.4c-4.2,0-7.6,3.4-7.6,7.6c0,4.2,3.4,7.6,7.6,7.6H498c4.2,0,7.6-3.4,7.6-7.6c0-4.2-3.4-7.6-7.6-7.6
		H241.3z M503.5,41c0,3-2.5,5.5-5.5,5.5H241.3c-3,0-5.5-2.5-5.5-5.5c0-3,2.5-5.5,5.5-5.5H498C501.1,35.5,503.5,38,503.5,41z"/>
	<rect x="242" y="36.7" class="st16" width="0.7" height="8.7"/>
	<rect x="239" y="38" class="st16" width="0.7" height="6"/>
	<rect x="244.8" y="36.7" class="st16" width="0.7" height="8.7"/>
	<rect x="247.6" y="36.7" class="st16" width="0.7" height="8.7"/>
	<rect x="250.4" y="36.7" class="st16" width="0.7" height="8.7"/>
	<rect x="253.2" y="36.7" class="st16" width="0.7" height="8.7"/>
	<rect x="255.9" y="36.7" class="st16" width="0.7" height="8.7"/>
	<rect x="258.7" y="36.7" class="st16" width="0.7" height="8.7"/>
	<rect x="261.5" y="36.7" class="st16" width="0.7" height="8.7"/>
	<rect x="264.3" y="36.7" class="st16" width="0.7" height="8.7"/>
	<rect x="267.1" y="36.7" class="st16" width="0.7" height="8.7"/>
	<rect x="269.9" y="36.7" class="st16" width="0.7" height="8.7"/>
	<rect x="272.7" y="36.7" class="st16" width="0.7" height="8.7"/>
	<rect x="275.5" y="36.7" class="st16" width="0.7" height="8.7"/>
	<rect x="278.3" y="36.7" class="st16" width="0.7" height="8.7"/>
	<rect x="281.1" y="36.7" class="st16" width="0.7" height="8.7"/>
	<rect x="283.9" y="36.7" class="st16" width="0.7" height="8.7"/>
	<rect x="286.6" y="36.7" class="st16" width="0.7" height="8.7"/>
	<rect x="289.4" y="36.7" class="st16" width="0.7" height="8.7"/>
	<rect x="292.2" y="36.7" class="st16" width="0.7" height="8.7"/>
	<rect x="295" y="36.7" class="st16" width="0.7" height="8.7"/>
	<rect x="297.8" y="36.7" class="st16" width="0.7" height="8.7"/>
	<rect x="300.6" y="36.7" class="st16" width="0.7" height="8.7"/>
	<rect x="303.4" y="36.7" class="st16" width="0.7" height="8.7"/>
	<rect x="306.2" y="36.7" class="st16" width="0.7" height="8.7"/>
	<rect x="309" y="36.7" class="st16" width="0.7" height="8.7"/>
	<rect x="311.8" y="36.7" class="st16" width="0.7" height="8.7"/>
	<rect x="314.5" y="36.7" class="st16" width="0.7" height="8.7"/>
	<rect x="317.3" y="36.7" class="st16" width="0.7" height="8.7"/>
	<rect x="320.1" y="36.7" class="st16" width="0.7" height="8.7"/>
	<rect x="322.9" y="36.7" class="st16" width="0.7" height="8.7"/>
	<rect x="325.7" y="36.7" class="st16" width="0.7" height="8.7"/>
	<rect x="328.5" y="36.7" class="st16" width="0.7" height="8.7"/>
	<rect x="331.3" y="36.7" class="st16" width="0.7" height="8.7"/>
	<rect x="334.1" y="36.7" class="st16" width="0.7" height="8.7"/>
	<rect x="336.9" y="36.7" class="st16" width="0.7" height="8.7"/>
	<rect x="339.7" y="36.7" class="st16" width="0.7" height="8.7"/>
	<rect x="342.5" y="36.7" class="st16" width="0.7" height="8.7"/>
	<rect x="345.2" y="36.7" class="st16" width="0.7" height="8.7"/>
	<rect x="348" y="36.7" class="st16" width="0.7" height="8.7"/>
	<rect x="350.8" y="36.7" class="st16" width="0.7" height="8.7"/>
	<rect x="353.6" y="36.7" class="st16" width="0.7" height="8.7"/>
	<rect x="356.4" y="36.7" class="st16" width="0.7" height="8.7"/>
	<rect x="359.2" y="36.7" class="st16" width="0.7" height="8.7"/>
	<rect x="362" y="36.7" class="st16" width="0.7" height="8.7"/>
	<rect x="364.8" y="36.7" class="st16" width="0.7" height="8.7"/>
	<rect x="367.6" y="36.7" class="st16" width="0.7" height="8.7"/>
	<rect x="370.4" y="36.7" class="st16" width="0.7" height="8.7"/>
	<rect x="373.2" y="36.7" class="st16" width="0.7" height="8.7"/>
	<rect x="375.9" y="36.7" class="st16" width="0.7" height="8.7"/>
	<rect x="378.7" y="36.7" class="st16" width="0.7" height="8.7"/>
	<rect x="381.5" y="36.7" class="st16" width="0.7" height="8.7"/>
	<rect x="384.3" y="36.7" class="st16" width="0.7" height="8.7"/>
	<rect x="387.1" y="36.7" class="st16" width="0.7" height="8.7"/>
	<rect x="389.9" y="36.7" class="st16" width="0.7" height="8.7"/>
	<rect x="392.7" y="36.7" class="st16" width="0.7" height="8.7"/>
	<rect x="395.5" y="36.7" class="st16" width="0.7" height="8.7"/>
	<rect x="398.3" y="36.7" class="st16" width="0.7" height="8.7"/>
	<rect x="401.1" y="36.7" class="st16" width="0.7" height="8.7"/>
	<rect x="403.8" y="36.7" class="st16" width="0.7" height="8.7"/>
	<rect x="406.6" y="36.7" class="st16" width="0.7" height="8.7"/>
	<rect x="409.4" y="36.7" class="st16" width="0.7" height="8.7"/>
	<rect x="412.2" y="36.7" class="st16" width="0.7" height="8.7"/>
	<rect x="415" y="36.7" class="st16" width="0.7" height="8.7"/>
	<rect x="417.8" y="36.7" class="st16" width="0.7" height="8.7"/>
	<rect x="420.6" y="36.7" class="st16" width="0.7" height="8.7"/>
	<rect x="423.4" y="36.7" class="st16" width="0.7" height="8.7"/>
	<rect x="426.2" y="36.7" class="st16" width="0.7" height="8.7"/>
	<rect x="429" y="36.7" class="st16" width="0.7" height="8.7"/>
	<rect x="431.8" y="36.7" class="st16" width="0.7" height="8.7"/>
	<rect x="434.5" y="36.7" class="st16" width="0.7" height="8.7"/>
	<rect x="437.3" y="36.7" class="st16" width="0.7" height="8.7"/>
	<rect x="440.1" y="36.7" class="st16" width="0.7" height="8.7"/>
	<rect x="442.9" y="36.7" class="st16" width="0.7" height="8.7"/>
	<rect x="445.7" y="36.7" class="st16" width="0.7" height="8.7"/>
	<rect x="448.5" y="36.7" class="st16" width="0.7" height="8.7"/>
	<rect x="451.3" y="36.7" class="st16" width="0.7" height="8.7"/>
	<rect x="454.1" y="36.7" class="st16" width="0.7" height="8.7"/>
	<rect x="456.9" y="36.7" class="st16" width="0.7" height="8.7"/>
	<rect x="459.7" y="36.7" class="st16" width="0.7" height="8.7"/>
	<rect x="462.5" y="36.7" class="st16" width="0.7" height="8.7"/>
	<rect x="465.2" y="36.7" class="st16" width="0.7" height="8.7"/>
	<rect x="468" y="36.7" class="st16" width="0.7" height="8.7"/>
	<rect x="470.8" y="36.7" class="st16" width="0.7" height="8.7"/>
	<rect x="473.6" y="36.7" class="st16" width="0.7" height="8.7"/>
	<rect x="476.4" y="36.7" class="st16" width="0.7" height="8.7"/>
	<rect x="479.2" y="36.7" class="st16" width="0.7" height="8.7"/>
	<rect x="482" y="36.7" class="st16" width="0.7" height="8.7"/>
	<rect x="484.8" y="36.7" class="st16" width="0.7" height="8.7"/>
	<rect x="487.6" y="36.7" class="st16" width="0.7" height="8.7"/>
	<rect x="499" y="38" class="st16" width="0.7" height="6"/>
	<rect x="490.4" y="36.7" class="st16" width="0.7" height="8.7"/>
	<rect x="493.1" y="36.7" class="st16" width="0.7" height="8.7"/>
	<rect x="495.9" y="36.7" class="st16" width="0.7" height="8.7"/>
	<linearGradient id="SVGID_13_" gradientUnits="userSpaceOnUse" x1="364.7777" y1="53.0806" x2="364.7777" y2="658.9933">
		<stop  offset="0" style="stop-color:#030305"/>
		<stop  offset="1" style="stop-color:#212121"/>
	</linearGradient>
	<path class="st17" d="M493.1,1454.2H236.4c-4.2,0-7.6,3.4-7.6,7.6c0,4.2,3.4,7.6,7.6,7.6h256.7c4.2,0,7.6-3.4,7.6-7.6
		C500.7,1457.5,497.3,1454.2,493.1,1454.2z M493.1,1467.3H236.4c-3,0-5.5-2.5-5.5-5.5c0-3,2.5-5.5,5.5-5.5h256.7
		c3,0,5.5,2.5,5.5,5.5C498.7,1464.8,496.2,1467.3,493.1,1467.3z"/>
	<linearGradient id="SVGID_14_" gradientUnits="userSpaceOnUse" x1="364.7777" y1="1469.3416" x2="364.7777" y2="1454.1516">
		<stop  offset="0" style="stop-color:#555354"/>
		<stop  offset="1" style="stop-color:#343132"/>
	</linearGradient>
	<path class="st18" d="M493.1,1454.2H236.4c-4.2,0-7.6,3.4-7.6,7.6c0,4.2,3.4,7.6,7.6,7.6h256.7c4.2,0,7.6-3.4,7.6-7.6
		C500.7,1457.5,497.3,1454.2,493.1,1454.2z M493.1,1467.3H236.4c-3,0-5.5-2.5-5.5-5.5c0-3,2.5-5.5,5.5-5.5h256.7
		c3,0,5.5,2.5,5.5,5.5C498.7,1464.8,496.2,1467.3,493.1,1467.3z"/>
	<rect x="237.1" y="1457.4" class="st16" width="0.7" height="8.7"/>
	<rect x="234.1" y="1458.7" class="st16" width="0.7" height="6"/>
	<rect x="239.9" y="1457.4" class="st16" width="0.7" height="8.7"/>
	<rect x="242.7" y="1457.4" class="st16" width="0.7" height="8.7"/>
	<rect x="245.5" y="1457.4" class="st16" width="0.7" height="8.7"/>
	<rect x="248.3" y="1457.4" class="st16" width="0.7" height="8.7"/>
	<rect x="251.1" y="1457.4" class="st16" width="0.7" height="8.7"/>
	<rect x="253.9" y="1457.4" class="st16" width="0.7" height="8.7"/>
	<rect x="256.6" y="1457.4" class="st16" width="0.7" height="8.7"/>
	<rect x="259.4" y="1457.4" class="st16" width="0.7" height="8.7"/>
	<rect x="262.2" y="1457.4" class="st16" width="0.7" height="8.7"/>
	<rect x="265" y="1457.4" class="st16" width="0.7" height="8.7"/>
	<rect x="267.8" y="1457.4" class="st16" width="0.7" height="8.7"/>
	<rect x="270.6" y="1457.4" class="st16" width="0.7" height="8.7"/>
	<rect x="273.4" y="1457.4" class="st16" width="0.7" height="8.7"/>
	<rect x="276.2" y="1457.4" class="st16" width="0.7" height="8.7"/>
	<rect x="279" y="1457.4" class="st16" width="0.7" height="8.7"/>
	<rect x="281.8" y="1457.4" class="st16" width="0.7" height="8.7"/>
	<rect x="284.5" y="1457.4" class="st16" width="0.7" height="8.7"/>
	<rect x="287.3" y="1457.4" class="st16" width="0.7" height="8.7"/>
	<rect x="290.1" y="1457.4" class="st16" width="0.7" height="8.7"/>
	<rect x="292.9" y="1457.4" class="st16" width="0.7" height="8.7"/>
	<rect x="295.7" y="1457.4" class="st16" width="0.7" height="8.7"/>
	<rect x="298.5" y="1457.4" class="st16" width="0.7" height="8.7"/>
	<rect x="301.3" y="1457.4" class="st16" width="0.7" height="8.7"/>
	<rect x="304.1" y="1457.4" class="st16" width="0.7" height="8.7"/>
	<rect x="306.9" y="1457.4" class="st16" width="0.7" height="8.7"/>
	<rect x="309.7" y="1457.4" class="st16" width="0.7" height="8.7"/>
	<rect x="312.5" y="1457.4" class="st16" width="0.7" height="8.7"/>
	<rect x="315.2" y="1457.4" class="st16" width="0.7" height="8.7"/>
	<rect x="318" y="1457.4" class="st16" width="0.7" height="8.7"/>
	<rect x="320.8" y="1457.4" class="st16" width="0.7" height="8.7"/>
	<rect x="323.6" y="1457.4" class="st16" width="0.7" height="8.7"/>
	<rect x="326.4" y="1457.4" class="st16" width="0.7" height="8.7"/>
	<rect x="329.2" y="1457.4" class="st16" width="0.7" height="8.7"/>
	<rect x="332" y="1457.4" class="st16" width="0.7" height="8.7"/>
	<rect x="334.8" y="1457.4" class="st16" width="0.7" height="8.7"/>
	<rect x="337.6" y="1457.4" class="st16" width="0.7" height="8.7"/>
	<rect x="340.4" y="1457.4" class="st16" width="0.7" height="8.7"/>
	<rect x="343.2" y="1457.4" class="st16" width="0.7" height="8.7"/>
	<rect x="345.9" y="1457.4" class="st16" width="0.7" height="8.7"/>
	<rect x="348.7" y="1457.4" class="st16" width="0.7" height="8.7"/>
	<rect x="351.5" y="1457.4" class="st16" width="0.7" height="8.7"/>
	<rect x="354.3" y="1457.4" class="st16" width="0.7" height="8.7"/>
	<rect x="357.1" y="1457.4" class="st16" width="0.7" height="8.7"/>
	<rect x="359.9" y="1457.4" class="st16" width="0.7" height="8.7"/>
	<rect x="362.7" y="1457.4" class="st16" width="0.7" height="8.7"/>
	<rect x="365.5" y="1457.4" class="st16" width="0.7" height="8.7"/>
	<rect x="368.3" y="1457.4" class="st16" width="0.7" height="8.7"/>
	<rect x="371.1" y="1457.4" class="st16" width="0.7" height="8.7"/>
	<rect x="373.9" y="1457.4" class="st16" width="0.7" height="8.7"/>
	<rect x="376.6" y="1457.4" class="st16" width="0.7" height="8.7"/>
	<rect x="379.4" y="1457.4" class="st16" width="0.7" height="8.7"/>
	<rect x="382.2" y="1457.4" class="st16" width="0.7" height="8.7"/>
	<rect x="385" y="1457.4" class="st16" width="0.7" height="8.7"/>
	<rect x="387.8" y="1457.4" class="st16" width="0.7" height="8.7"/>
	<rect x="390.6" y="1457.4" class="st16" width="0.7" height="8.7"/>
	<rect x="393.4" y="1457.4" class="st16" width="0.7" height="8.7"/>
	<rect x="396.2" y="1457.4" class="st16" width="0.7" height="8.7"/>
	<rect x="399" y="1457.4" class="st16" width="0.7" height="8.7"/>
	<rect x="401.8" y="1457.4" class="st16" width="0.7" height="8.7"/>
	<rect x="404.5" y="1457.4" class="st16" width="0.7" height="8.7"/>
	<rect x="407.3" y="1457.4" class="st16" width="0.7" height="8.7"/>
	<rect x="410.1" y="1457.4" class="st16" width="0.7" height="8.7"/>
	<rect x="412.9" y="1457.4" class="st16" width="0.7" height="8.7"/>
	<rect x="415.7" y="1457.4" class="st16" width="0.7" height="8.7"/>
	<rect x="418.5" y="1457.4" class="st16" width="0.7" height="8.7"/>
	<rect x="421.3" y="1457.4" class="st16" width="0.7" height="8.7"/>
	<rect x="424.1" y="1457.4" class="st16" width="0.7" height="8.7"/>
	<rect x="426.9" y="1457.4" class="st16" width="0.7" height="8.7"/>
	<rect x="429.7" y="1457.4" class="st16" width="0.7" height="8.7"/>
	<rect x="432.4" y="1457.4" class="st16" width="0.7" height="8.7"/>
	<rect x="435.2" y="1457.4" class="st16" width="0.7" height="8.7"/>
	<rect x="438" y="1457.4" class="st16" width="0.7" height="8.7"/>
	<rect x="440.8" y="1457.4" class="st16" width="0.7" height="8.7"/>
	<rect x="443.6" y="1457.4" class="st16" width="0.7" height="8.7"/>
	<rect x="446.4" y="1457.4" class="st16" width="0.7" height="8.7"/>
	<rect x="449.2" y="1457.4" class="st16" width="0.7" height="8.7"/>
	<rect x="452" y="1457.4" class="st16" width="0.7" height="8.7"/>
	<rect x="454.8" y="1457.4" class="st16" width="0.7" height="8.7"/>
	<rect x="457.6" y="1457.4" class="st16" width="0.7" height="8.7"/>
	<rect x="460.4" y="1457.4" class="st16" width="0.7" height="8.7"/>
	<rect x="463.2" y="1457.4" class="st16" width="0.7" height="8.7"/>
	<rect x="465.9" y="1457.4" class="st16" width="0.7" height="8.7"/>
	<rect x="468.7" y="1457.4" class="st16" width="0.7" height="8.7"/>
	<rect x="471.5" y="1457.4" class="st16" width="0.7" height="8.7"/>
	<rect x="474.3" y="1457.4" class="st16" width="0.7" height="8.7"/>
	<rect x="477.1" y="1457.4" class="st16" width="0.7" height="8.7"/>
	<rect x="479.9" y="1457.4" class="st16" width="0.7" height="8.7"/>
	<rect x="482.7" y="1457.4" class="st16" width="0.7" height="8.7"/>
	<rect x="494.1" y="1458.7" class="st16" width="0.7" height="6"/>
	<rect x="485.5" y="1457.4" class="st16" width="0.7" height="8.7"/>
	<rect x="488.3" y="1457.4" class="st16" width="0.7" height="8.7"/>
	<rect x="491.1" y="1457.4" class="st16" width="0.7" height="8.7"/>
	<path class="st19" d="M99.1,66c0,7.7,6.2,13.9,13.9,13.9c7.7,0,13.9-6.2,13.9-13.9c0-7.7-6.2-13.9-13.9-13.9
		C105.4,52.1,99.1,58.3,99.1,66z M121.6,66c0,4.7-3.8,8.5-8.5,8.5c-4.7,0-8.5-3.8-8.5-8.5c0-4.7,3.8-8.5,8.5-8.5
		C117.8,57.6,121.6,61.4,121.6,66z"/>
	<path class="st20" d="M104.6,66c0,4.7,3.8,8.5,8.5,8.5c4.7,0,8.5-3.8,8.5-8.5c0-4.7-3.8-8.5-8.5-8.5
		C108.4,57.6,104.6,61.4,104.6,66z M120.2,66c0,3.9-3.2,7.1-7.1,7.1c-3.9,0-7.1-3.2-7.1-7.1c0-3.9,3.2-7.1,7.1-7.1
		C117,58.9,120.2,62.1,120.2,66z"/>
	<path class="st21" d="M106,66c0,3.9,3.2,7.1,7.1,7.1c3.9,0,7.1-3.2,7.1-7.1c0-3.9-3.2-7.1-7.1-7.1C109.2,58.9,106,62.1,106,66z
		 M111.1,72.8c-0.6-0.2-1.1-0.4-1.6-0.7c0,0,0,0,0,0c0,0,0,0,0,0c-0.1-0.1-0.3-0.1-0.4-0.2c0,0,0,0,0,0c-0.2-0.1-0.4-0.3-0.6-0.5
		c0,0,0,0,0,0c-0.4-0.3-0.7-0.7-1-1c0,0,0,0,0,0c-0.2-0.3-0.4-0.6-0.6-0.9c0-0.1,0-0.1-0.1-0.2c-0.1-0.3-0.3-0.5-0.4-0.8
		c0,0,0,0,0,0c0-0.1,0-0.1,0-0.2c0,0,0,0,0,0c0,0,0,0,0,0c-0.2-0.7-0.4-1.4-0.4-2.1c0.8-1.1,2-1.7,3.5-1.7c2.4,0,4.4,2,4.4,4.4
		C113.9,70.6,112.7,72.2,111.1,72.8z M114.5,62.9c0.8,0,1.4,0.6,1.4,1.4c0,0.8-0.6,1.4-1.4,1.4c-0.8,0-1.4-0.6-1.4-1.4
		C113.1,63.5,113.7,62.9,114.5,62.9z"/>
	<path class="st22" d="M114.5,65.7c0.8,0,1.4-0.6,1.4-1.4c0-0.8-0.6-1.4-1.4-1.4c-0.8,0-1.4,0.6-1.4,1.4
		C113.1,65.1,113.7,65.7,114.5,65.7z"/>
	<path class="st23" d="M109.1,71.8c0.1,0.1,0.3,0.2,0.4,0.2C109.4,72,109.3,71.9,109.1,71.8C109.1,71.8,109.1,71.8,109.1,71.8z"/>
	<path class="st23" d="M106.9,69.4c0-0.1,0-0.1-0.1-0.2C106.8,69.3,106.8,69.3,106.9,69.4z"/>
	<path class="st23" d="M106.4,68.2c0,0.1,0,0.1,0,0.2c0,0,0,0,0,0C106.4,68.3,106.4,68.3,106.4,68.2z"/>
	<path class="st23" d="M107.5,70.3C107.5,70.3,107.5,70.3,107.5,70.3C107.5,70.3,107.5,70.3,107.5,70.3z"/>
	<path class="st23" d="M109.5,64.4c-1.4,0-2.7,0.7-3.5,1.7c0,0.7,0.1,1.5,0.4,2.1c0.3-1.4,1.5-2.4,3-2.4c1.7,0,3.1,1.4,3.1,3.2
		c0,1.7-1.3,3-3,3.1c0.5,0.3,1,0.5,1.6,0.7c1.6-0.6,2.7-2.2,2.7-4.1C113.9,66.3,111.9,64.4,109.5,64.4z"/>
	<polygon class="st24" points="106.4,68.2 106.4,68.2 106.4,68.2 	"/>
	<path class="st24" d="M109.5,72.1C109.5,72.1,109.5,72.1,109.5,72.1C109.5,72.1,109.5,72.1,109.5,72.1
		C109.5,72.1,109.5,72.1,109.5,72.1z"/>
	<path class="st24" d="M108.5,71.4C108.5,71.4,108.5,71.4,108.5,71.4C108.5,71.4,108.5,71.4,108.5,71.4z"/>
	<path class="st24" d="M112.5,69c0-1.7-1.4-3.2-3.1-3.2c-1.5,0-2.7,1-3,2.4c0,0,0,0,0,0c0,0,0,0.1,0.1,0.1c0.4-0.9,1.3-1.5,2.3-1.5
		c1.4,0,2.5,1.1,2.5,2.5c0,1.3-0.9,2.3-2.1,2.4c0.1,0.1,0.2,0.2,0.4,0.2c0,0,0,0,0,0C111.2,72,112.5,70.7,112.5,69z"/>
	<path class="st25" d="M106.4,68.4c0.1,0.3,0.2,0.6,0.4,0.8C106.7,69,106.5,68.7,106.4,68.4C106.4,68.4,106.4,68.4,106.4,68.4z"/>
	<path class="st25" d="M107.5,70.3c-0.2-0.3-0.4-0.6-0.6-0.9C107,69.7,107.2,70,107.5,70.3z"/>
	<path class="st25" d="M107.6,70.5C107.6,70.5,107.6,70.5,107.6,70.5c0-0.1-0.1-0.1-0.1-0.1c0.3,0.4,0.6,0.7,1,1c0,0,0,0,0,0
		C108.2,71.1,107.9,70.8,107.6,70.5z"/>
	<path class="st25" d="M108.5,71.4c0.2,0.2,0.4,0.3,0.6,0.5c0,0,0,0,0,0C108.9,71.7,108.7,71.5,108.5,71.4
		C108.5,71.4,108.5,71.4,108.5,71.4z"/>
	<path class="st25" d="M108.5,71.3c-0.3-0.3-0.6-0.6-0.9-0.9C107.9,70.8,108.2,71.1,108.5,71.3z"/>
	<path class="st25" d="M108.5,71.4c0.2,0.2,0.4,0.3,0.6,0.4c0,0,0,0,0.1,0C108.9,71.7,108.7,71.6,108.5,71.4z"/>
	<path class="st25" d="M106.4,68.4C106.4,68.4,106.4,68.4,106.4,68.4c0.1,0.3,0.2,0.6,0.4,0.9c0,0.1,0,0.1,0.1,0.2
		c0.2,0.3,0.4,0.6,0.6,0.9c0,0,0,0,0,0c0,0.1,0.1,0.1,0.1,0.1C107.1,69.8,106.7,69.1,106.4,68.4z"/>
	<path class="st25" d="M107.6,70.5C107.6,70.5,107.6,70.5,107.6,70.5C107.6,70.5,107.6,70.5,107.6,70.5z"/>
	<path class="st25" d="M108.5,71.3C108.5,71.4,108.5,71.4,108.5,71.3C108.5,71.4,108.5,71.4,108.5,71.3
		C108.5,71.4,108.5,71.4,108.5,71.3C108.5,71.4,108.5,71.4,108.5,71.3z"/>
	<path class="st25" d="M107.6,70.5c0.3,0.3,0.6,0.6,0.9,0.9c0,0,0,0,0.1,0c0.2,0.2,0.4,0.3,0.6,0.4c1.2-0.2,2.1-1.2,2.1-2.4
		c0-1.4-1.1-2.5-2.5-2.5c-1,0-1.9,0.6-2.3,1.5C106.7,69.1,107.1,69.8,107.6,70.5C107.6,70.5,107.6,70.5,107.6,70.5z"/>
	<path class="st26" d="M641.5,23.9c21.6,0,40.8,6.1,52.9,15.6c-11.6-11-32.1-18.3-55.6-18.3h-541c-23.4,0-43.9,7.3-55.6,18.3
		C54.4,30,73.5,23.9,95.2,23.9H641.5z"/>
	<linearGradient id="SVGID_15_" gradientUnits="userSpaceOnUse" x1="367.599" y1="53.0806" x2="367.599" y2="658.9933">
		<stop  offset="0" style="stop-color:#030305"/>
		<stop  offset="1" style="stop-color:#212121"/>
	</linearGradient>
	<path class="st27" d="M654.6,4.6H80.6c-39.1,0-71,31.8-71,71v1348.3c0,39.1,31.8,71,71,71h574.1c39.1,0,71-31.8,71-71V75.6
		C725.6,36.5,693.8,4.6,654.6,4.6z M723.9,1423.8c0,38.2-31,69.2-69.2,69.2H80.6c-38.2,0-69.2-31-69.2-69.2V75.6
		c0-38.2,31-69.2,69.2-69.2h574.1c38.2,0,69.2,31,69.2,69.2V1423.8z"/>
	<linearGradient id="SVGID_16_" gradientUnits="userSpaceOnUse" x1="4.4157" y1="749.7148" x2="730.7822" y2="749.7148">
		<stop  offset="0" style="stop-color:#8E8C8F"/>
		<stop  offset="1.612900e-02" style="stop-color:#241F23"/>
		<stop  offset="4.838710e-02" style="stop-color:#C8C5C7"/>
		<stop  offset="0.9409" style="stop-color:#C8C5C7"/>
		<stop  offset="0.9731" style="stop-color:#241F23"/>
		<stop  offset="1" style="stop-color:#8E8C8F"/>
	</linearGradient>
	<path class="st28" d="M654.6,4.6H80.6c-39.1,0-71,31.8-71,71v1348.3c0,39.1,31.8,71,71,71h574.1c39.1,0,71-31.8,71-71V75.6
		C725.6,36.5,693.8,4.6,654.6,4.6z M723.9,1423.8c0,38.2-31,69.2-69.2,69.2H80.6c-38.2,0-69.2-31-69.2-69.2V75.6
		c0-38.2,31-69.2,69.2-69.2h574.1c38.2,0,69.2,31,69.2,69.2V1423.8z"/>
</g>
<g>
	<path class="st31" d="M264.6,146.9h-32.7c-3.6,0-6.5,2.9-6.5,6.5v18.3c0,3.6,2.9,6.5,6.5,6.5h32.7c3.6,0,6.5-2.9,6.5-6.5v-18.3
		C271.2,149.8,268.2,146.9,264.6,146.9z"/>
	<path class="st30" d="M263.5,143.8h-30.4c-2,0-3.6-1.6-3.6-3.6v-4.6c0-2,1.6-3.6,3.6-3.6h30.4c2,0,3.6,1.6,3.6,3.6v4.6
		C267.1,142.2,265.5,143.8,263.5,143.8z"/>
	<path class="st30" d="M256.5,193h-16.4c-2,0-3.6-1.6-3.6-3.6v-4.6c0-2,1.6-3.6,3.6-3.6h16.4c2,0,3.6,1.6,3.6,3.6v4.6
		C260,191.4,258.4,193,256.5,193z"/>
	<g>
		<circle class="st1" cx="237.8" cy="137.9" r="2.7"/>
		<circle class="st1" cx="258.8" cy="137.9" r="2.7"/>
	</g>
	<path class="st30" d="M246.3,129.6c0,0,0.5-1.3,2-1.3s2,1.3,2,1.3v9.6h-4V129.6z"/>
	<polygon class="st30" points="242.1,169 254.5,162.6 242.1,156.1 	"/>
	<circle class="st31" cx="248.3" cy="123.8" r="2.7"/>
	<text transform="matrix(1 0 0 1 301.2305 178.6577)"><tspan x="0" y="0" class="st31 st32 st33">juke</tspan><tspan x="119.9" y="0" class="st30 st32 st33">Bot</tspan></text>
</g>
</svg>
